<?xml version="1.0" encoding="UTF-8" standalone="no"?>
<svg
   id="Camada_2"
   data-name="Camada 2"
   viewBox="0 0 2025 2025"
   version="1.1"
   sodipodi:docname="SVG_DadosBranco-old.svg"
   inkscape:export-filename="SVG_DadosBranco.svg"
   inkscape:export-xdpi="96"
   inkscape:export-ydpi="96"
   width="2025"
   height="2025"
   xmlns:inkscape="http://www.inkscape.org/namespaces/inkscape"
   xmlns:sodipodi="http://sodipodi.sourceforge.net/DTD/sodipodi-0.dtd"
   xmlns="http://www.w3.org/2000/svg"
   xmlns:svg="http://www.w3.org/2000/svg">
  <sodipodi:namedview
     id="namedview4"
     pagecolor="#ffffff"
     bordercolor="#999999"
     borderopacity="1"
     inkscape:showpageshadow="2"
     inkscape:pageopacity="0"
     inkscape:pagecheckerboard="0"
     inkscape:deskcolor="#d1d1d1"
     showguides="true">
    <sodipodi:guide
       position="0,0.1"
       orientation="0,1"
       id="guide4"
       inkscape:locked="false"
       inkscape:label="margin-bottom"
       inkscape:color="rgb(0,134,229)" />
    <sodipodi:guide
       position="0,0.9"
       orientation="0,1"
       id="guide5"
       inkscape:label="margin-top"
       inkscape:locked="false"
       inkscape:color="rgb(0,134,229)" />
  </sodipodi:namedview>
  <defs
     id="defs1">
    <style
       id="style1">
      .cls-1 {
        fill: #478eff;
      }

      .cls-1, .cls-2 {
        stroke-width: 0px;
      }

      .cls-2 {
        fill: #fff;
      }
    </style>
  </defs>
  <g
     id="Camada_3"
     data-name="Camada 3">
    <g
       id="g4">
      <g
         id="g3"
         transform="matrix(1.636908,0,0,1.636908,-14.33043,-14.33043)">
        <path
           class="cls-1"
           d="m 12.5,25.81 h 3 c 0.55,0 1,0.45 1,1 V 33 c 0,0.28 -0.22,0.5 -0.5,0.5 h -4 c -0.28,0 -0.5,-0.22 -0.5,-0.5 v -6.19 c 0,-0.55 0.45,-1 1,-1 z"
           id="path1" />
        <path
           class="cls-1"
           d="m 21,11.5 h 3 c 0.55,0 1,0.45 1,1 V 33 c 0,0.28 -0.22,0.5 -0.5,0.5 h -4 C 20.22,33.5 20,33.28 20,33 V 12.5 c 0,-0.55 0.45,-1 1,-1 z"
           id="path2" />
        <path
           class="cls-1"
           d="m 29.5,19.5 h 3 c 0.55,0 1,0.45 1,1 V 33 c 0,0.28 -0.22,0.5 -0.5,0.5 h -4 c -0.28,0 -0.5,-0.22 -0.5,-0.5 V 20.5 c 0,-0.55 0.45,-1 1,-1 z"
           id="path3" />
      </g>
    </g>
  </g>
</svg>
